<svg class="caLogoBrain oddSectionItem" viewBox="0 0 105.6 101.83" width="321" height="309.7" xmlns="http://www.w3.org/2000/svg"><g data-name="Layer 2" id="Layer_2"><g data-name="Layer 1" id="Layer_1-2"><path d="M66.32,85.51H64.81v3h-1.4v1.32h1.41V96a2.57,2.57,0,0,0,2.85,2.85,3.78,3.78,0,0,0,1.82-.43V97.12a3.15,3.15,0,0,1-1.47.35,1.49,1.49,0,0,1-1.7-1.68v-5.9h3.21V88.56H66.32Z"></path><path d="M57.05,97l-3.67-8.42H51.72l4.59,10.07c-.61,1.43-1.17,1.89-2.08,1.89a3.14,3.14,0,0,1-1.58-.38l-.51,1.19a4.59,4.59,0,0,0,2.15.51c1.52,0,2.5-.76,3.36-2.85L61.9,88.56H60.3Z"></path><path d="M95.17,94.95c0,1.6-1.53,2.74-3.38,2.74-1.37,0-2.54-.74-2.54-2s1.06-2.11,3-2.11a10.57,10.57,0,0,1,3,.43Zm-2.87-6.53a8.34,8.34,0,0,0-3.67.84l.45,1.23a7,7,0,0,1,3.07-.74c1.89,0,3,.94,3,2.75v.35A10.68,10.68,0,0,0,92,92.42c-2.56,0-4.32,1.13-4.32,3.28s1.89,3.17,3.78,3.17a4.43,4.43,0,0,0,3.65-1.74v1.52H96.6V92.49c0-2.66-1.55-4.06-4.3-4.06"></path><path d="M82,97.55a3.78,3.78,0,0,1-3.71-3.95,3.73,3.73,0,0,1,3.61-3.94,4.09,4.09,0,0,1,3.07,1.52l1-1.05a5.31,5.31,0,1,0,.08,6.8L85,96A4.17,4.17,0,0,1,82,97.54"></path><rect height="10.1" width="1.5" x="72.32" y="88.56"></rect><path d="M29.2,88.34a3.82,3.82,0,0,0-3.46,2V88.55H24.23V98.66h1.51V92.87a3,3,0,0,1,3-3.17c1.78,0,2.79,1.17,2.79,3v5.9h1.51V92.39a3.69,3.69,0,0,0-3.87-4"></path><path d="M43,94.95c0,1.6-1.53,2.74-3.38,2.74-1.37,0-2.54-.74-2.54-2s1.06-2.11,3-2.11A10.56,10.56,0,0,1,43,94Zm-2.87-6.53a8.34,8.34,0,0,0-3.66.84l.45,1.23a7,7,0,0,1,3.07-.74c1.89,0,3,.94,3,2.76v.35a10.65,10.65,0,0,0-3.11-.43c-2.56,0-4.32,1.13-4.32,3.28s1.89,3.17,3.77,3.17A4.42,4.42,0,0,0,43,97.14v1.53H44.4V92.49c0-2.66-1.54-4.06-4.3-4.06"></path><path d="M11.69,93.66l3.13-7,3.11,7Zm2.42-8.78L7.88,98.66H9.47L11.09,95h7.44l1.6,3.61h1.66L15.56,84.88Z"></path><rect height="14.27" width="1.5" x="47.73" y="84.39"></rect><path d="M11.32,76.07a6,6,0,0,1-4.42,2,5.66,5.66,0,0,1,0-11.29,5.91,5.91,0,0,1,4.3,1.89l1.06-1.13a7.12,7.12,0,0,0-5.34-2.17,7.06,7.06,0,0,0-.06,14.12,7.12,7.12,0,0,0,5.47-2.41Z"></path><rect height="10.1" width="1.5" x="65.71" y="69.14"></rect><path d="M91.86,73.69a3.55,3.55,0,0,1-3.71,3.44,3.41,3.41,0,0,1-3.5-3.46,3.33,3.33,0,0,1,3.5-3.42,3.54,3.54,0,0,1,3.71,3.44m-8.76,0a4.66,4.66,0,0,0,4.75,4.75,4.78,4.78,0,0,0,4-2.13v1.19a3.32,3.32,0,0,1-3.67,3.6,6.45,6.45,0,0,1-3.89-1.29L83.57,81a7.92,7.92,0,0,0,4.59,1.41c3.11,0,5.14-1.66,5.14-4.92V69.14H91.8V71a4.78,4.78,0,0,0-8.7,2.76"></path><path d="M97.56,73.64a3.48,3.48,0,0,1,3.29-3.44c2,0,3.07,1.6,3.22,3.44Zm8,.65c0-3-1.72-5.36-4.72-5.36a5.3,5.3,0,0,0,.19,10.57,5.22,5.22,0,0,0,4.17-1.89l-.94-.84a4.18,4.18,0,0,1-3.18,1.43,3.54,3.54,0,0,1-3.56-3.42h8a3.87,3.87,0,0,0,0-.47"></path><path d="M21.46,75.53c0,1.6-1.53,2.74-3.38,2.74-1.37,0-2.54-.74-2.54-2s1.05-2.11,3-2.11a10.55,10.55,0,0,1,3,.43ZM18.59,69a8.34,8.34,0,0,0-3.68.85l.45,1.23a7,7,0,0,1,3.07-.74c1.89,0,3,.94,3,2.76v.34A10.75,10.75,0,0,0,18.33,73C15.77,73,14,74.13,14,76.29s1.89,3.17,3.77,3.17a4.42,4.42,0,0,0,3.66-1.74v1.52h1.45V73.07c0-2.66-1.54-4.07-4.3-4.07"></path><path d="M59.16,71.78V69.14H57.65V79.24h1.51v-4c0-3,1.8-4.63,4-4.63h.12V69a4.33,4.33,0,0,0-4.13,2.81"></path><path d="M39.91,73.34v5.9h1.51V73c0-2.5-1.43-4.06-3.75-4.06a4,4,0,0,0-3.56,2,3.43,3.43,0,0,0-3.24-2,3.7,3.7,0,0,0-3.27,1.91v-1.7H26.09V79.25H27.6V73.48a2.93,2.93,0,0,1,2.81-3.19c1.6,0,2.6,1.11,2.6,3v5.94H34.5V73.42a2.83,2.83,0,0,1,2.79-3.13c1.64,0,2.62,1.09,2.62,3"></path><path d="M75.23,78.11a3.65,3.65,0,0,1-3.56-3.93,3.57,3.57,0,0,1,3.56-3.91,3.93,3.93,0,0,1,0,7.84m3.6-.9v2h1.51V65H78.83v6.1A4.57,4.57,0,0,0,75,68.93a5.29,5.29,0,0,0,0,10.54,4.55,4.55,0,0,0,3.87-2.25"></path><path d="M49.78,78.11a3.93,3.93,0,0,1,0-7.84,3.65,3.65,0,0,1,3.56,3.93,3.57,3.57,0,0,1-3.56,3.91m5.1-3.93a4.94,4.94,0,0,0-4.83-5.26,4.55,4.55,0,0,0-3.87,2.25V65H44.67V79.25h1.51V77.31a4.57,4.57,0,0,0,3.87,2.15,5,5,0,0,0,4.83-5.28"></path><path d="M67.59,66a1.1,1.1,0,1,0-1.1,1.1,1.1,1.1,0,0,0,1.1-1.1Z"></path><path d="M73.06,84.27a1.1,1.1,0,1,0,1.1,1.1,1.1,1.1,0,0,0-1.1-1.1"></path><path d="M26.33,10.06A1.36,1.36,0,1,1,25,8.7a1.36,1.36,0,0,1,1.36,1.36"></path><path d="M20.61,20.21a1.36,1.36,0,1,1-1.36-1.36,1.36,1.36,0,0,1,1.36,1.36"></path><path d="M37.81,34.42a1.36,1.36,0,1,1-1.36-1.36,1.36,1.36,0,0,1,1.36,1.36"></path><path d="M34.22,13.2a1.36,1.36,0,1,1-1.36-1.36,1.36,1.36,0,0,1,1.36,1.36"></path><path d="M48.9,15.22a1.36,1.36,0,1,1-1.36-1.36,1.36,1.36,0,0,1,1.36,1.36"></path><path d="M44.78,1.36A1.36,1.36,0,1,1,43.42,0a1.36,1.36,0,0,1,1.36,1.36"></path><path d="M57.43,2A1.36,1.36,0,1,1,56.07.65,1.36,1.36,0,0,1,57.43,2"></path><path d="M74.21,6.46A1.36,1.36,0,1,1,72.85,5.1a1.36,1.36,0,0,1,1.36,1.36"></path><path d="M86.85,20.13a1.36,1.36,0,1,1-1.36-1.36,1.36,1.36,0,0,1,1.36,1.36"></path><path d="M68.68,13.5a1.36,1.36,0,1,1-1.36-1.36,1.36,1.36,0,0,1,1.36,1.36"></path><path d="M82.56,37.68a1.36,1.36,0,1,1-1.36-1.36,1.36,1.36,0,0,1,1.36,1.36"></path><path d="M55.35,41.73A1.36,1.36,0,1,1,54,40.38a1.36,1.36,0,0,1,1.36,1.36"></path><path d="M67.84,55.26a1.36,1.36,0,1,1-1.36-1.36,1.36,1.36,0,0,1,1.36,1.36"></path><rect height="0.36" transform="translate(1.02 14.95) rotate(-25.13)" width="20.42" x="23.84" y="5.02"></rect><rect height="12.83" transform="translate(44.93 50.79) rotate(-86.02)" width="0.36" x="49.51" y="-5.11"></rect><polygon points="18.97 20.11 18.66 19.93 24.65 9.44 24.96 9.62 18.97 20.11"></polygon><rect height="12.92" transform="translate(-9 11.76) rotate(-25.4)" width="0.36" x="21.41" y="19.4"></rect><rect height="0.36" transform="translate(-4.66 13.47) rotate(-26.92)" width="15.66" x="17.97" y="16.29"></rect><polygon points="36.28 34.59 24.21 31.77 24.29 31.42 36.36 34.24 36.28 34.59"></polygon><polygon points="47.52 15.39 33 13.33 33.05 12.97 47.57 15.04 47.52 15.39"></polygon><rect height="0.36" transform="translate(-1.05 5.19) rotate(-5.12)" width="19.85" x="47.51" y="14.18"></rect><rect height="19.51" transform="translate(35.13 83.26) rotate(-70.46)" width="0.36" x="76.33" y="7"></rect><rect height="0.36" transform="translate(7.82 31) rotate(-48.86)" width="16" x="30.03" y="6.71"></rect><rect height="14.97" transform="translate(-0.41 13.25) rotate(-16.52)" width="0.36" x="45.24" y="0.55"></rect><polygon points="47.7 15.31 47.4 15.12 55.94 1.66 56.24 1.85 47.7 15.31"></polygon><rect height="16.25" transform="translate(11.84 44.77) rotate(-43.73)" width="0.36" x="61.52" y="-0.5"></rect><polygon points="72.81 6.63 56.04 1.93 56.13 1.58 72.9 6.28 72.81 6.63"></polygon><polygon points="85.58 20.15 72.72 6.58 72.98 6.33 85.84 19.9 85.58 20.15"></polygon><rect height="0.36" transform="translate(18.9 58.88) rotate(-51.79)" width="8.96" x="65.61" y="9.8"></rect><rect height="8.56" transform="translate(7.38 33.79) rotate(-68.22)" width="0.36" x="28.45" y="7.17"></rect><polygon points="65.51 56.11 66.74 56.13 66.87 55.8 65.64 55.77 65.51 56.11"></polygon><polygon points="65.53 54.94 53.83 41.82 54.15 41.65 65.84 54.77 65.53 54.94"></polygon><polygon points="66.75 56.02 64 44.02 64.34 43.9 67.09 55.9 66.75 56.02"></polygon><rect height="0.36" transform="translate(14.94 66.41) rotate(-61.36)" width="16.21" x="55.33" y="20.43"></rect><rect height="0.36" transform="translate(3.33 74.89) rotate(-68.53)" width="14.46" x="49.4" y="34.83"></rect><path d="M60.64,28.27a1.36,1.36,0,1,1-1.36-1.36,1.36,1.36,0,0,1,1.36,1.36"></path><rect height="21.52" transform="translate(-3.49 6.11) rotate(-9.6)" width="0.36" x="34.47" y="13.05"></rect><rect height="19" transform="translate(-7.33 65.17) rotate(-67.37)" width="0.36" x="45.04" y="28.58"></rect><path d="M74.57,29.92a1.36,1.36,0,1,1-1.36-1.36,1.36,1.36,0,0,1,1.36,1.36"></path><polygon points="59.15 28.39 47.41 15.34 47.68 15.1 59.41 28.15 59.15 28.39"></polygon><rect height="0.36" transform="translate(35.49 103.02) rotate(-76.27)" width="18.07" x="74.31" y="28.73"></rect><polygon points="73.33 30.06 73.11 29.78 85.6 19.88 85.82 20.16 73.33 30.06"></polygon><rect height="17.45" transform="translate(-3.2 25.02) rotate(-19.75)" width="0.36" x="70.09" y="12.99"></rect><rect height="14.03" transform="translate(29.56 91.47) rotate(-83.25)" width="0.36" x="66.07" y="22.08"></rect><rect height="22.2" transform="translate(-10.98 31.19) rotate(-50.22)" width="0.36" x="27.61" y="16.21"></rect><rect height="0.36" transform="translate(-0.5 48.78) rotate(-60)" width="22.18" x="30.91" y="24.64"></rect><polygon points="36.49 34.59 36.4 34.25 59.23 28.1 59.33 28.45 36.49 34.59"></polygon><polygon points="64.32 44.06 64.02 43.86 73.07 29.82 73.36 30.02 64.32 44.06"></polygon><path d="M65.53,44a1.36,1.36,0,1,1-1.36-1.36A1.36,1.36,0,0,1,65.53,44"></path><polygon points="63.81 43.62 59.11 28.32 59.45 28.23 64.16 43.53 63.81 43.62"></polygon><polygon points="64.12 44.13 53.94 41.91 54.04 41.56 64.22 43.79 64.12 44.13"></polygon><rect height="0.36" transform="translate(-0.12 0.13) rotate(-0.16)" width="12.27" x="41.73" y="41.57"></rect><polygon points="41.72 41.94 36.3 34.53 36.59 34.32 42.01 41.73 41.72 41.94"></polygon><polygon points="64.23 44.13 64.11 43.79 81.14 37.52 81.27 37.85 64.23 44.13"></polygon><rect height="11.14" transform="translate(-0.84 65.63) rotate(-45.83)" width="0.36" x="77.03" y="28.24"></rect><rect height="11.77" transform="translate(-2.94 13.4) rotate(-8.73)" width="0.36" x="86.21" y="20.06"></rect><rect height="0.36" transform="translate(0.05 69.4) rotate(-44.78)" width="8.63" x="79.95" y="34.47"></rect><polygon points="77.02 46.05 76.69 45.89 81.04 37.61 81.36 37.76 77.02 46.05"></polygon><polygon points="76.98 46.06 64.15 44.14 64.19 43.78 77.02 45.7 76.98 46.06"></polygon><path d="M26,31.3a1.36,1.36,0,1,1-1.36-1.36A1.36,1.36,0,0,1,26,31.3"></path></g></g></svg>